<mxfile host="app.diagrams.net" modified="2023-03-15T19:19:52.533Z" agent="5.0 (Windows NT 10.0; Win64; x64) AppleWebKit/537.36 (KHTML, like Gecko) Chrome/111.0.0.0 Safari/537.36" etag="G0SZhgaKdh32tSbzFO6S" version="21.0.6" type="github">
  <diagram name="Page-1" id="5f0bae14-7c28-e335-631c-24af17079c00">
    <mxGraphModel dx="2403" dy="1288" grid="1" gridSize="10" guides="1" tooltips="1" connect="1" arrows="1" fold="1" page="1" pageScale="1" pageWidth="4681" pageHeight="3300" background="none" math="0" shadow="0">
      <root>
        <mxCell id="0" />
        <mxCell id="1" parent="0" />
        <mxCell id="TfVsFebPphV5wyhmCZcy-19" value="&amp;lt;&amp;lt;component&amp;gt;&amp;gt;&lt;br&gt;Front-End" style="whiteSpace=wrap;html=1;align=center;horizontal=1;verticalAlign=top;" parent="1" vertex="1">
          <mxGeometry x="1230" y="150" width="430" height="1070" as="geometry" />
        </mxCell>
        <mxCell id="39150e848f15840c-1" value="Block" style="verticalAlign=top;align=left;spacingTop=8;spacingLeft=2;spacingRight=12;shape=cube;size=10;direction=south;fontStyle=4;html=1;rounded=0;shadow=0;comic=0;labelBackgroundColor=none;strokeWidth=1;fontFamily=Verdana;fontSize=12" parent="1" vertex="1">
          <mxGeometry x="120" y="70" width="330" height="220" as="geometry" />
        </mxCell>
        <mxCell id="39150e848f15840c-2" value="Block" style="verticalAlign=top;align=left;spacingTop=8;spacingLeft=2;spacingRight=12;shape=cube;size=10;direction=south;fontStyle=4;html=1;rounded=0;shadow=0;comic=0;labelBackgroundColor=none;strokeWidth=1;fontFamily=Verdana;fontSize=12" parent="1" vertex="1">
          <mxGeometry x="530" y="70" width="330" height="220" as="geometry" />
        </mxCell>
        <mxCell id="39150e848f15840c-3" value="Block" style="verticalAlign=top;align=left;spacingTop=8;spacingLeft=2;spacingRight=12;shape=cube;size=10;direction=south;fontStyle=4;html=1;rounded=0;shadow=0;comic=0;labelBackgroundColor=none;strokeWidth=1;fontFamily=Verdana;fontSize=12" parent="1" vertex="1">
          <mxGeometry x="370" y="410" width="260" height="150" as="geometry" />
        </mxCell>
        <mxCell id="39150e848f15840c-4" value="&amp;laquo;interface&amp;raquo;&lt;br&gt;&lt;b&gt;Name&lt;/b&gt;" style="html=1;rounded=0;shadow=0;comic=0;labelBackgroundColor=none;strokeWidth=1;fontFamily=Verdana;fontSize=12;align=center;" parent="1" vertex="1">
          <mxGeometry x="160" y="140" width="110" height="50" as="geometry" />
        </mxCell>
        <mxCell id="39150e848f15840c-5" value="Module" style="shape=component;align=left;spacingLeft=36;rounded=0;shadow=0;comic=0;labelBackgroundColor=none;strokeWidth=1;fontFamily=Verdana;fontSize=12;html=1;" parent="1" vertex="1">
          <mxGeometry x="310" y="135" width="120" height="60" as="geometry" />
        </mxCell>
        <mxCell id="39150e848f15840c-6" value="" style="ellipse;whiteSpace=wrap;html=1;rounded=0;shadow=0;comic=0;labelBackgroundColor=none;strokeWidth=1;fontFamily=Verdana;fontSize=12;align=center;" parent="1" vertex="1">
          <mxGeometry x="360" y="230" width="20" height="20" as="geometry" />
        </mxCell>
        <mxCell id="39150e848f15840c-7" value="Module" style="shape=component;align=left;spacingLeft=36;rounded=0;shadow=0;comic=0;labelBackgroundColor=none;strokeWidth=1;fontFamily=Verdana;fontSize=12;html=1;" parent="1" vertex="1">
          <mxGeometry x="560" y="135" width="120" height="60" as="geometry" />
        </mxCell>
        <mxCell id="39150e848f15840c-8" value="&amp;laquo;interface&amp;raquo;&lt;br&gt;&lt;b&gt;Name&lt;/b&gt;" style="html=1;rounded=0;shadow=0;comic=0;labelBackgroundColor=none;strokeWidth=1;fontFamily=Verdana;fontSize=12;align=center;" parent="1" vertex="1">
          <mxGeometry x="720" y="140" width="110" height="50" as="geometry" />
        </mxCell>
        <mxCell id="39150e848f15840c-9" value="" style="ellipse;whiteSpace=wrap;html=1;rounded=0;shadow=0;comic=0;labelBackgroundColor=none;strokeWidth=1;fontFamily=Verdana;fontSize=12;align=center;" parent="1" vertex="1">
          <mxGeometry x="620" y="230" width="20" height="20" as="geometry" />
        </mxCell>
        <mxCell id="39150e848f15840c-10" value="Module" style="shape=component;align=left;spacingLeft=36;rounded=0;shadow=0;comic=0;labelBackgroundColor=none;strokeWidth=1;fontFamily=Verdana;fontSize=12;html=1;" parent="1" vertex="1">
          <mxGeometry x="440" y="460" width="120" height="60" as="geometry" />
        </mxCell>
        <mxCell id="39150e848f15840c-11" style="edgeStyle=none;rounded=0;html=1;dashed=1;labelBackgroundColor=none;startArrow=none;startFill=0;startSize=8;endArrow=open;endFill=0;endSize=16;fontFamily=Verdana;fontSize=12;" parent="1" source="39150e848f15840c-10" target="39150e848f15840c-6" edge="1">
          <mxGeometry relative="1" as="geometry" />
        </mxCell>
        <mxCell id="39150e848f15840c-12" style="edgeStyle=none;rounded=0;html=1;dashed=1;labelBackgroundColor=none;startArrow=none;startFill=0;startSize=8;endArrow=open;endFill=0;endSize=16;fontFamily=Verdana;fontSize=12;" parent="1" source="39150e848f15840c-3" target="39150e848f15840c-9" edge="1">
          <mxGeometry relative="1" as="geometry" />
        </mxCell>
        <mxCell id="39150e848f15840c-13" style="edgeStyle=elbowEdgeStyle;rounded=0;html=1;labelBackgroundColor=none;startArrow=none;startFill=0;startSize=8;endArrow=none;endFill=0;endSize=16;fontFamily=Verdana;fontSize=12;" parent="1" source="39150e848f15840c-9" target="39150e848f15840c-7" edge="1">
          <mxGeometry relative="1" as="geometry" />
        </mxCell>
        <mxCell id="39150e848f15840c-14" style="edgeStyle=elbowEdgeStyle;rounded=0;html=1;labelBackgroundColor=none;startArrow=none;startFill=0;startSize=8;endArrow=none;endFill=0;endSize=16;fontFamily=Verdana;fontSize=12;" parent="1" source="39150e848f15840c-6" target="39150e848f15840c-5" edge="1">
          <mxGeometry relative="1" as="geometry" />
        </mxCell>
        <mxCell id="39150e848f15840c-15" style="edgeStyle=orthogonalEdgeStyle;rounded=0;html=1;labelBackgroundColor=none;startArrow=none;startFill=0;startSize=8;endArrow=open;endFill=0;endSize=16;fontFamily=Verdana;fontSize=12;dashed=1;" parent="1" source="39150e848f15840c-5" target="39150e848f15840c-4" edge="1">
          <mxGeometry relative="1" as="geometry">
            <Array as="points">
              <mxPoint x="350" y="220" />
              <mxPoint x="215" y="220" />
            </Array>
          </mxGeometry>
        </mxCell>
        <mxCell id="39150e848f15840c-16" style="edgeStyle=orthogonalEdgeStyle;rounded=0;html=1;dashed=1;labelBackgroundColor=none;startArrow=none;startFill=0;startSize=8;endArrow=open;endFill=0;endSize=16;fontFamily=Verdana;fontSize=12;" parent="1" source="39150e848f15840c-7" target="39150e848f15840c-8" edge="1">
          <mxGeometry relative="1" as="geometry" />
        </mxCell>
        <mxCell id="39150e848f15840c-17" style="edgeStyle=orthogonalEdgeStyle;rounded=0;html=1;labelBackgroundColor=none;startArrow=none;startFill=0;startSize=8;endArrow=none;endFill=0;endSize=16;fontFamily=Verdana;fontSize=12;" parent="1" source="39150e848f15840c-3" target="39150e848f15840c-2" edge="1">
          <mxGeometry relative="1" as="geometry">
            <Array as="points">
              <mxPoint x="695" y="485" />
            </Array>
          </mxGeometry>
        </mxCell>
        <mxCell id="39150e848f15840c-18" style="edgeStyle=orthogonalEdgeStyle;rounded=0;html=1;labelBackgroundColor=none;startArrow=none;startFill=0;startSize=8;endArrow=none;endFill=0;endSize=16;fontFamily=Verdana;fontSize=12;" parent="1" source="39150e848f15840c-3" target="39150e848f15840c-1" edge="1">
          <mxGeometry relative="1" as="geometry">
            <Array as="points">
              <mxPoint x="285" y="485" />
            </Array>
          </mxGeometry>
        </mxCell>
        <mxCell id="TfVsFebPphV5wyhmCZcy-31" style="edgeStyle=orthogonalEdgeStyle;rounded=0;orthogonalLoop=1;jettySize=auto;html=1;" parent="1" source="TfVsFebPphV5wyhmCZcy-27" target="Gb7XnMSziSP-tkuVYGW9-13" edge="1">
          <mxGeometry relative="1" as="geometry" />
        </mxCell>
        <mxCell id="TfVsFebPphV5wyhmCZcy-27" value="HTTP Request&lt;br&gt;GET/POST/PUT/UPDATE" style="shape=providedRequiredInterface;html=1;verticalLabelPosition=bottom;sketch=0;direction=west;" parent="1" vertex="1">
          <mxGeometry x="2130" y="200" width="20" height="20" as="geometry" />
        </mxCell>
        <mxCell id="TfVsFebPphV5wyhmCZcy-42" value="" style="group" parent="1" vertex="1" connectable="0">
          <mxGeometry x="350" y="710" width="300" height="220" as="geometry" />
        </mxCell>
        <mxCell id="TfVsFebPphV5wyhmCZcy-32" value="&amp;lt;&amp;lt;component&amp;gt;&amp;gt;&lt;br&gt;" style="whiteSpace=wrap;html=1;align=center;verticalAlign=top;imageAspect=0;resizeWidth=1;resizeHeight=1;" parent="TfVsFebPphV5wyhmCZcy-42" vertex="1">
          <mxGeometry width="300" height="220" as="geometry" />
        </mxCell>
        <mxCell id="TfVsFebPphV5wyhmCZcy-33" value="" style="shape=module;align=left;spacingLeft=20;align=center;verticalAlign=top;whiteSpace=wrap;html=1;movable=1;resizable=1;rotatable=1;deletable=1;editable=1;locked=0;connectable=1;" parent="TfVsFebPphV5wyhmCZcy-42" vertex="1">
          <mxGeometry x="250" y="10" width="40" height="50" as="geometry" />
        </mxCell>
        <mxCell id="TfVsFebPphV5wyhmCZcy-34" value="Login/Registration" style="whiteSpace=wrap;html=1;align=center;verticalAlign=top;imageAspect=0;resizeWidth=1;resizeHeight=1;fillColor=#dae8fc;strokeColor=#6c8ebf;" parent="1" vertex="1">
          <mxGeometry x="1388.12" y="680" width="201.88" height="175" as="geometry" />
        </mxCell>
        <mxCell id="TfVsFebPphV5wyhmCZcy-37" value="User Management" style="whiteSpace=wrap;html=1;align=center;verticalAlign=top;imageAspect=0;resizeWidth=1;resizeHeight=1;fillColor=#dae8fc;strokeColor=#6c8ebf;" parent="1" vertex="1">
          <mxGeometry x="1400" y="900" width="190" height="275" as="geometry" />
        </mxCell>
        <mxCell id="TfVsFebPphV5wyhmCZcy-36" value="&amp;lt;&amp;lt;subcomponent&amp;gt;&amp;gt;&lt;br&gt;User Overview Page" style="whiteSpace=wrap;html=1;align=center;verticalAlign=top;imageAspect=0;resizeWidth=1;resizeHeight=1;" parent="1" vertex="1">
          <mxGeometry x="1415" y="950" width="151.88" height="40" as="geometry" />
        </mxCell>
        <mxCell id="TfVsFebPphV5wyhmCZcy-45" value="Lobby Management" style="whiteSpace=wrap;html=1;align=center;verticalAlign=top;imageAspect=0;resizeWidth=1;resizeHeight=1;fillColor=#dae8fc;strokeColor=#6c8ebf;" parent="1" vertex="1">
          <mxGeometry x="1280" y="270" width="310" height="230" as="geometry" />
        </mxCell>
        <mxCell id="Gb7XnMSziSP-tkuVYGW9-1" value="Game Management" style="whiteSpace=wrap;html=1;align=center;verticalAlign=top;imageAspect=0;resizeWidth=1;resizeHeight=1;fillColor=#dae8fc;strokeColor=#6c8ebf;" vertex="1" parent="1">
          <mxGeometry x="1265.94" y="520" width="338.12" height="140" as="geometry" />
        </mxCell>
        <mxCell id="Gb7XnMSziSP-tkuVYGW9-5" value="&amp;lt;&amp;lt;subcomponent&amp;gt;&amp;gt;&lt;br&gt;Lobby Browser Page" style="whiteSpace=wrap;html=1;align=center;verticalAlign=top;imageAspect=0;resizeWidth=1;resizeHeight=1;" vertex="1" parent="1">
          <mxGeometry x="1340" y="330" width="151.88" height="40" as="geometry" />
        </mxCell>
        <mxCell id="Gb7XnMSziSP-tkuVYGW9-6" value="&amp;lt;&amp;lt;subcomponent&amp;gt;&amp;gt;&lt;br&gt;Login Page" style="whiteSpace=wrap;html=1;align=center;verticalAlign=top;imageAspect=0;resizeWidth=1;resizeHeight=1;" vertex="1" parent="1">
          <mxGeometry x="1413.12" y="735" width="151.88" height="40" as="geometry" />
        </mxCell>
        <mxCell id="Gb7XnMSziSP-tkuVYGW9-7" value="&amp;lt;&amp;lt;subcomponent&amp;gt;&amp;gt;&lt;br&gt;Registration Page" style="whiteSpace=wrap;html=1;align=center;verticalAlign=top;imageAspect=0;resizeWidth=1;resizeHeight=1;" vertex="1" parent="1">
          <mxGeometry x="1411.2399999999998" y="795" width="151.88" height="40" as="geometry" />
        </mxCell>
        <mxCell id="Gb7XnMSziSP-tkuVYGW9-8" value="&amp;lt;&amp;lt;subcomponent&amp;gt;&amp;gt;&lt;br&gt;User Profile Page" style="whiteSpace=wrap;html=1;align=center;verticalAlign=top;imageAspect=0;resizeWidth=1;resizeHeight=1;" vertex="1" parent="1">
          <mxGeometry x="1415" y="1005" width="151.88" height="40" as="geometry" />
        </mxCell>
        <mxCell id="Gb7XnMSziSP-tkuVYGW9-9" value="&amp;lt;&amp;lt;subcomponent&amp;gt;&amp;gt;&lt;br&gt;Lobby Creation Page" style="whiteSpace=wrap;html=1;align=center;verticalAlign=top;imageAspect=0;resizeWidth=1;resizeHeight=1;" vertex="1" parent="1">
          <mxGeometry x="1350" y="385" width="151.88" height="40" as="geometry" />
        </mxCell>
        <mxCell id="Gb7XnMSziSP-tkuVYGW9-10" value="&amp;lt;&amp;lt;subcomponent&amp;gt;&amp;gt;&lt;br&gt;Ingame Page" style="whiteSpace=wrap;html=1;align=center;verticalAlign=top;imageAspect=0;resizeWidth=1;resizeHeight=1;" vertex="1" parent="1">
          <mxGeometry x="1359.06" y="570" width="135" height="40" as="geometry" />
        </mxCell>
        <mxCell id="TfVsFebPphV5wyhmCZcy-28" style="edgeStyle=orthogonalEdgeStyle;rounded=0;orthogonalLoop=1;jettySize=auto;html=1;entryX=1;entryY=0.5;entryDx=0;entryDy=0;" parent="1" source="TfVsFebPphV5wyhmCZcy-27" target="Gb7XnMSziSP-tkuVYGW9-5" edge="1">
          <mxGeometry relative="1" as="geometry">
            <mxPoint x="1910" y="375" as="targetPoint" />
          </mxGeometry>
        </mxCell>
        <mxCell id="TfVsFebPphV5wyhmCZcy-23" value="&amp;lt;&amp;lt;component&amp;gt;&amp;gt;&lt;br&gt;Back-End" style="whiteSpace=wrap;html=1;align=center;verticalAlign=top;" parent="1" vertex="1">
          <mxGeometry x="2380" y="90" width="1170" height="1170" as="geometry" />
        </mxCell>
        <mxCell id="Gb7XnMSziSP-tkuVYGW9-2" value="&amp;lt;&amp;lt;subcomponent&amp;gt;&amp;gt;&lt;br&gt;Board" style="whiteSpace=wrap;html=1;align=center;verticalAlign=top;imageAspect=0;resizeWidth=1;resizeHeight=1;" vertex="1" parent="1">
          <mxGeometry x="2400" y="730" width="150" height="50" as="geometry" />
        </mxCell>
        <mxCell id="Gb7XnMSziSP-tkuVYGW9-3" value="&amp;lt;&amp;lt;subcomponent&amp;gt;&amp;gt;&lt;br&gt;Turn" style="whiteSpace=wrap;html=1;align=center;verticalAlign=top;imageAspect=0;resizeWidth=1;resizeHeight=1;" vertex="1" parent="1">
          <mxGeometry x="2400" y="790" width="251.88" height="50" as="geometry" />
        </mxCell>
        <mxCell id="Gb7XnMSziSP-tkuVYGW9-4" value="&amp;lt;&amp;lt;subcomponent&amp;gt;&amp;gt;&lt;br&gt;Player" style="whiteSpace=wrap;html=1;align=center;verticalAlign=top;imageAspect=0;resizeWidth=1;resizeHeight=1;" vertex="1" parent="1">
          <mxGeometry x="2400" y="850" width="251.88" height="50" as="geometry" />
        </mxCell>
        <mxCell id="Gb7XnMSziSP-tkuVYGW9-11" value="REST API" style="whiteSpace=wrap;html=1;align=center;verticalAlign=top;imageAspect=0;resizeWidth=1;resizeHeight=1;fillColor=#dae8fc;strokeColor=#6c8ebf;" vertex="1" parent="1">
          <mxGeometry x="2420" y="130" width="230" height="520" as="geometry" />
        </mxCell>
        <mxCell id="TfVsFebPphV5wyhmCZcy-25" value="&amp;lt;&amp;lt;component&amp;gt;&amp;gt;&lt;br&gt;Database" style="whiteSpace=wrap;html=1;aspect=fixed;align=center;verticalAlign=top;" parent="1" vertex="1">
          <mxGeometry x="1630" y="1320" width="780" height="780" as="geometry" />
        </mxCell>
        <mxCell id="Gb7XnMSziSP-tkuVYGW9-13" value="&amp;lt;&amp;lt;subcomponent&amp;gt;&amp;gt;&lt;br&gt;/users" style="whiteSpace=wrap;html=1;align=center;verticalAlign=top;imageAspect=0;resizeWidth=1;resizeHeight=1;" vertex="1" parent="1">
          <mxGeometry x="2440" y="166.87" width="190" height="50" as="geometry" />
        </mxCell>
        <mxCell id="Gb7XnMSziSP-tkuVYGW9-14" value="&amp;lt;&amp;lt;subcomponent&amp;gt;&amp;gt;&lt;br&gt;.. ALLE REST API Specs" style="whiteSpace=wrap;html=1;align=center;verticalAlign=top;imageAspect=0;resizeWidth=1;resizeHeight=1;" vertex="1" parent="1">
          <mxGeometry x="2440" y="240" width="190" height="50" as="geometry" />
        </mxCell>
        <mxCell id="Gb7XnMSziSP-tkuVYGW9-17" value="Game Management" style="whiteSpace=wrap;html=1;align=center;verticalAlign=top;imageAspect=0;resizeWidth=1;resizeHeight=1;fillColor=#dae8fc;strokeColor=#6c8ebf;" vertex="1" parent="1">
          <mxGeometry x="2960" y="740" width="260" height="290" as="geometry" />
        </mxCell>
        <mxCell id="Gb7XnMSziSP-tkuVYGW9-18" value="Lobby Management" style="whiteSpace=wrap;html=1;align=center;verticalAlign=top;imageAspect=0;resizeWidth=1;resizeHeight=1;fillColor=#dae8fc;strokeColor=#6c8ebf;" vertex="1" parent="1">
          <mxGeometry x="3220" y="160" width="260" height="290" as="geometry" />
        </mxCell>
        <mxCell id="Gb7XnMSziSP-tkuVYGW9-19" value="User Management" style="whiteSpace=wrap;html=1;align=center;verticalAlign=top;imageAspect=0;resizeWidth=1;resizeHeight=1;fillColor=#dae8fc;strokeColor=#6c8ebf;" vertex="1" parent="1">
          <mxGeometry x="2800" y="160" width="260" height="290" as="geometry" />
        </mxCell>
      </root>
    </mxGraphModel>
  </diagram>
</mxfile>
